# xmcd CD database file
#
# Track frame offsets:
#	150
#	41269
#	68652
#	90256
#	110096
#	122148
#	147191
#	173542
#	199052
#
# Disc length: 3136 seconds
#
# Revision: 0
# Processed by: cddbd v1.5.2PL0 Copyright (c) Steve Scherf et al.
# Submitted via: CDex 1.51
#
DISCID=700c3e09
DTITLE=Various Artist - Echo 2012 - Cd1
DYEAR=2012
DGENRE=Jazz
TTITLE0=Lisbeth Quartett - Red
TTITLE1=Pascal Schuhmacher Quartett - Bang my can
TTITLE2=Kurt Elling - Steppin¥ out
TTITLE3=Joo Kraus Trio - Rock your body
TTITLE4=Trombone Shorty - Dumaine St.
TTITLE5=Ambrose Akinmusire - The walls of Lechuguilaa
TTITLE6=Tringvall Trio - V‰gen
TTITLE7=Jasmin Tabatabai - Augen in der Groﬂstadt
TTITLE8=Chistian Els‰sser - Ostinato
EXTD=YEAR: 2012
EXTT0=
EXTT1=
EXTT2=
EXTT3=
EXTT4=
EXTT5=
EXTT6=
EXTT7=
EXTT8=
PLAYORDER=
